# xmcd
#
# Track frame offsets: 
#        150
#        45382
#        117800
#        182307
#        237747
#        277890
#
# Disc length: 4417 seconds
#
# Revision: 1
# Processed by: cddbd v1.5.2PL0 Copyright (c) Steve Scherf et al.
# Submitted via: ExactAudioCopy v0.95b4
#
DISCID=45113f06
DTITLE=Eric Clapton - 1975-04-14 - Milk Cow Blues - CD1
DYEAR=1975
DGENRE=Blues
TTITLE0=Badge
TTITLE1=Milk Cow Blues and Have You Ever Loved A Woman
TTITLE2=Steady Rollin' Man
TTITLE3=Let It Rain
TTITLE4=Nobody Loves You When You're Down And Out
TTITLE5=I Shot The Sheriff
EXTD=CD 1
EXTT0=
EXTT1=
EXTT2=
EXTT3=
EXTT4=
EXTT5=
PLAYORDER=
